<?xml version="1.0" encoding="utf-8"?>
<svg xmlns="http://www.w3.org/2000/svg" viewBox="6.185 13.936 487.208 487.636" width="190.316px" height="190.483px">
  <circle cx="249.528" cy="257.279" r="243.343" style="fill: rgb(242, 239, 255);"/>
  <path d="M 493.393 258.229 C 493.393 392.624 384.445 501.572 250.05 501.572 C 148.311 501.572 61.154 439.136 24.806 350.491 C 57.736 309.021 108.191 299.255 160.333 330.896 C 201.593 355.936 252.19 391.914 306.338 371.208 C 305.458 379.001 303.128 386.512 299.574 393.309 L 392.961 412.103 C 395.89 404.511 398.43 396.713 400.431 389.022 C 396.947 391.265 390.292 393.714 381.056 392.269 C 340.601 385.932 348.587 339.341 380.535 335.059 C 391.227 333.632 401.251 338.214 407.531 346.078 L 425.44 308.001 C 358.735 313.953 298.489 277.799 232.018 291.656 C 266.76 298.919 287.833 314.81 298.379 333.131 C 291.197 333.681 284.249 333.716 277.536 333.283 L 266.943 323.245 L 253.598 329.548 C 247.74 328.058 242.102 326.171 236.641 323.916 L 229.081 308.764 L 218.4 314.612 C 211.392 310.322 204.761 305.389 198.47 299.857 L 196.696 273.656 L 177.658 278.583 C 170.304 271.109 162.82 265.182 155.253 260.616 L 153.997 241.271 L 130.612 250.485 C 119.138 247.842 107.637 247.918 96.267 250.241 C 139.584 161.703 227.577 159.737 273.37 187 C 268.252 192.565 262.219 197.146 255.618 200.498 L 320.818 269.955 C 327.601 265.466 334.167 260.585 340.253 255.474 C 336.114 255.276 326.393 250.568 323.142 247.579 C 289.319 216.49 330.095 185.034 355.344 199.951 C 364.633 205.439 370.396 214.543 370.954 224.591 L 404.993 201.204 C 347.189 167.392 321.639 105.759 259.443 78.523 C 282.063 102.982 290.504 126.632 289.78 146.845 C 281.033 140.231 271.555 134.99 261.528 130.985 L 247.967 110.172 L 230.152 122.663 C 225.077 121.924 219.909 121.441 214.694 121.193 L 195.991 103.47 L 181.055 122.754 C 173.3 123.799 165.496 125.293 157.699 127.225 L 142.274 114.492 L 132.722 134.876 C 125.878 137.376 119.072 140.184 112.366 143.294 L 89.257 135.182 L 80.81 160.527 C 68.795 168.135 66.804 179.466 46.648 186.054 C 34.903 188.868 25.106 189.374 16.936 188.194 C 47.014 87.938 140.001 14.886 250.05 14.886 C 384.445 14.886 493.393 123.834 493.393 258.229 Z" style="fill: rgb(96, 76, 165);"/>
</svg>